<svg width="86" height="86" viewBox="0 0 86 86" fill="none" xmlns="http://www.w3.org/2000/svg">
<rect width="86" height="86" rx="43" fill="#23263F" fill-opacity="0.89"/>
<g clip-path="url(#clip0_4001_224)">
<path fill-rule="evenodd" clip-rule="evenodd" d="M36.5033 44.2322L46.8052 37.939C47.2066 37.697 47.6873 37.6236 48.1426 37.735C48.5978 37.8463 48.9904 38.1333 49.2348 38.5332C49.4791 38.9331 49.5552 39.4135 49.4465 39.8693C49.3378 40.3252 49.0531 40.7195 48.6547 40.9662L39.6535 46.4648L47.1836 53.9973C47.5201 54.3339 47.9358 54.5803 48.3925 54.714C48.8492 54.8477 49.3322 54.8643 49.797 54.7623C50.2618 54.6603 50.6934 54.443 51.0522 54.1303C51.4109 53.8177 51.6852 53.4198 51.8498 52.9733L58.2164 35.6898C58.3548 35.3161 58.4008 34.9145 58.3505 34.5192C58.3001 34.1239 58.1549 33.7466 57.9273 33.4195C57.6996 33.0924 57.3962 32.8252 57.043 32.6407C56.6898 32.4562 56.2972 32.3599 55.8987 32.3599H55.6503C55.4138 32.3599 55.175 32.3907 54.9456 32.4545L28.8596 39.4738C28.4966 39.573 28.1776 39.7916 27.9543 40.0945C27.7309 40.3973 27.6163 40.7667 27.6288 41.1428C27.6414 41.5189 27.7805 41.8797 28.0236 42.167C28.2667 42.4542 28.5996 42.6511 28.9684 42.7257L36.5033 44.2322ZM28.2731 46.2046L35.9026 47.7301L44.6767 56.5042C45.4346 57.2604 46.3704 57.814 47.3981 58.1139C48.4258 58.4139 49.5124 58.4506 50.5581 58.2208C51.6037 57.9909 52.5747 57.5018 53.3819 56.7985C54.1891 56.0952 54.8065 55.2003 55.1773 54.196L61.5463 36.9126C61.8827 36.0024 61.994 35.0244 61.8707 34.062C61.7473 33.0995 61.3931 32.1812 60.8381 31.3852C60.2831 30.5893 59.5438 29.9395 58.6833 29.491C57.8228 29.0426 56.8666 28.809 55.8963 28.8101H55.6503C55.1016 28.8101 54.553 28.881 54.0232 29.0253L27.9373 36.0493C26.802 36.3568 25.8038 37.0386 25.1046 37.9844C24.4053 38.9302 24.046 40.0844 24.0849 41.2599C24.1238 42.4355 24.5585 43.5634 25.3187 44.4609C26.0789 45.3584 27.12 45.9729 28.2731 46.2046Z" fill="url(#paint0_linear_4001_224)"/>
</g>
<defs>
<linearGradient id="paint0_linear_4001_224" x1="61.9194" y1="50.4113" x2="22.1321" y2="49.0814" gradientUnits="userSpaceOnUse">
<stop stop-color="#C64679"/>
<stop offset="1" stop-color="#FC9D0F"/>
</linearGradient>
<clipPath id="clip0_4001_224">
<rect width="37.84" height="37.84" fill="white" transform="translate(24.0781 24.0801)"/>
</clipPath>
</defs>
</svg>
